<svg width="50" height="40" viewBox="0 0 50 40" fill="none" xmlns="http://www.w3.org/2000/svg">
<path id="Vector" d="M49.9227 1.64231C49.8989 1.23456 49.7261 0.849742 49.4373 0.560925C49.1484 0.272108 48.7636 0.099398 48.3558 0.0755858C37.5707 -0.549438 28.9109 2.72985 25.1895 8.87175C22.7308 12.9323 22.7349 17.8638 25.1562 22.5681C23.778 24.2085 22.7708 26.1274 22.2036 28.1933L18.8135 24.7911C20.4429 21.3889 20.3804 17.8429 18.6051 14.897C15.8546 10.3572 9.5057 7.9238 1.62317 8.38631C1.21536 8.41013 0.830498 8.58284 0.541645 8.87165C0.252791 9.16047 0.0800603 9.54529 0.0562451 9.95304C-0.408414 17.8346 2.0274 24.1827 6.56772 26.9328C8.06602 27.8481 9.78773 28.3326 11.5435 28.3329C13.2478 28.3119 14.9255 27.9082 16.4527 27.1516L21.6618 32.3601V38.3333C21.6618 38.7753 21.8375 39.1993 22.1501 39.5118C22.4627 39.8244 22.8867 40 23.3288 40C23.7709 40 24.1949 39.8244 24.5075 39.5118C24.8201 39.1993 24.9957 38.7753 24.9957 38.3333V32.1893C24.9883 29.5377 25.8907 26.9639 27.5524 24.8974C29.6964 26.0177 32.0742 26.6172 34.4931 26.6474C36.8318 26.655 39.127 26.0161 41.1254 24.8015C47.2681 21.0847 50.5561 12.426 49.9227 1.64231ZM8.28675 24.0827C5.0904 22.1472 3.28177 17.5658 3.32553 11.6656C9.22649 11.6156 13.8085 13.4303 15.7442 16.6262C16.7548 18.2929 16.9194 20.2368 16.2568 22.2389L11.1706 17.1533C10.8554 16.8539 10.4357 16.6895 10.0011 16.6951C9.5664 16.7006 9.1511 16.8757 8.84371 17.1831C8.53633 17.4904 8.36118 17.9057 8.35561 18.3403C8.35005 18.7749 8.5145 19.1945 8.81392 19.5096L13.9002 24.5953C11.8978 25.2578 9.95577 25.0932 8.28675 24.0827ZM39.3981 21.9535C36.6059 23.6431 33.3242 23.7723 29.9903 22.3702L41.1775 11.1823C41.4769 10.8671 41.6414 10.4475 41.6358 10.0129C41.6303 9.5783 41.4551 9.16305 41.1477 8.8557C40.8403 8.54835 40.425 8.37323 39.9904 8.36767C39.5557 8.3621 39.136 8.52654 38.8209 8.82591L27.6316 19.9993C26.223 16.6658 26.3501 13.3823 28.0483 10.5926C30.9529 5.8008 37.8416 3.12987 46.6617 3.33613C46.8618 12.1531 44.1947 19.0492 39.3981 21.9535Z" fill="#19381F"/>
</svg>
