<svg width="40" height="35" viewBox="0 0 40 35" fill="none" xmlns="http://www.w3.org/2000/svg">
<path id="Vector" d="M18.5718 5.81458V2.88136H14.2872C13.9084 2.88136 13.5451 2.72957 13.2773 2.45939C13.0094 2.18921 12.8589 1.82277 12.8589 1.44068C12.8589 1.05859 13.0094 0.692145 13.2773 0.421965C13.5451 0.151786 13.9084 0 14.2872 0H25.7128C26.0916 0 26.4549 0.151786 26.7227 0.421965C26.9906 0.692145 27.1411 1.05859 27.1411 1.44068C27.1411 1.82277 26.9906 2.18921 26.7227 2.45939C26.4549 2.72957 26.0916 2.88136 25.7128 2.88136H21.4282V5.81458C24.1683 6.01181 26.8388 6.77649 29.2729 8.06092C31.7071 9.34534 33.8528 11.122 35.5761 13.2799C37.2995 15.4379 38.5635 17.9309 39.2894 20.6035C40.0152 23.2761 40.1874 26.0709 39.795 28.8136H0.204982C-0.187363 26.0709 -0.0152351 23.2761 0.710629 20.6035C1.43649 17.9309 2.70052 15.4379 4.42386 13.2799C6.1472 11.122 8.29288 9.34534 10.7271 8.06092C13.1612 6.77649 15.8317 6.01181 18.5718 5.81458ZM2.86146 25.9322H37.1385C37.1385 23.6619 36.6952 21.4138 35.834 19.3163C34.9727 17.2188 33.7102 15.313 32.1188 13.7076C30.5273 12.1023 28.638 10.8289 26.5586 9.96005C24.4793 9.09124 22.2507 8.64407 20 8.64407C17.7493 8.64407 15.5207 9.09124 13.4414 9.96005C11.362 10.8289 9.47268 12.1023 7.88122 13.7076C6.28976 15.313 5.02734 17.2188 4.16605 19.3163C3.30476 21.4138 2.86146 23.6619 2.86146 25.9322ZM1.43324 31.6949H38.5668C38.9455 31.6949 39.3088 31.8467 39.5767 32.1169C39.8445 32.3871 39.995 32.7535 39.995 33.1356C39.995 33.5177 39.8445 33.8841 39.5767 34.1543C39.3088 34.4245 38.9455 34.5763 38.5668 34.5763H1.43324C1.05446 34.5763 0.691187 34.4245 0.423345 34.1543C0.155504 33.8841 0.00503173 33.5177 0.00503173 33.1356C0.00503173 32.7535 0.155504 32.3871 0.423345 32.1169C0.691187 31.8467 1.05446 31.6949 1.43324 31.6949Z" fill="#19381F"/>
</svg>
